<svg xmlns="http://www.w3.org/2000/svg" fill="none" viewBox="0 0 100 50" height="50" width="100">
<path fill="#48A3FF" d="M49.8714 43C49.3471 43 48.9211 42.574 48.9211 42.0498V37.1566C48.9211 36.6323 49.3471 36.2063 49.8714 36.2063C50.3956 36.2063 50.8216 36.6323 50.8216 37.1566V42.0498C50.8216 42.574 50.3956 43 49.8714 43ZM62.7816 41.0012C62.2573 41.0012 61.8313 40.5752 61.8313 40.051V36.7852C61.8313 36.2609 62.2573 35.835 62.7816 35.835C63.3058 35.835 63.7318 36.2609 63.7318 36.7852V40.051C63.7318 40.5752 63.3058 41.0012 62.7816 41.0012ZM36.9612 38.1068C36.4369 38.1068 36.0109 37.6808 36.0109 37.1566V32.2634C36.0109 31.7391 36.4369 31.3131 36.9612 31.3131C37.4854 31.3131 37.9114 31.7391 37.9114 32.2634V37.1566C37.9114 37.6808 37.4854 38.1068 36.9612 38.1068ZM49.8167 34.8956C46.125 34.8956 42.6626 33.443 40.0522 30.8107C37.4854 28.2002 36.0437 24.7597 36.0109 21.1007C36 21.057 36 21.0024 36 20.9478V7.95024C36 7.56796 36.2294 7.21845 36.5898 7.07646C36.71 7.03277 36.8301 7.01092 36.9612 7C37.2015 7 37.4527 7.0983 37.6383 7.28398L40.7512 10.4296C43.2633 8.21238 46.4527 7 49.8167 7C53.5085 7 56.9709 8.45267 59.5813 11.085C62.1481 13.6954 63.5898 17.1359 63.6226 20.7949C63.6335 20.8386 63.6335 20.8932 63.6335 20.9478V33.9454C63.6335 34.3277 63.4041 34.6772 63.0437 34.8192C62.9235 34.8629 62.8034 34.8956 62.6833 34.8956H62.6723C62.432 34.8956 62.1808 34.7973 61.9951 34.6117L58.8823 31.466C56.3811 33.6942 53.1917 34.8956 49.8167 34.8956ZM37.9005 20.8058C37.9114 20.8495 37.9114 20.9041 37.9114 20.9478C37.9114 24.1699 39.1566 27.1954 41.4066 29.4782C43.6566 31.75 46.6493 33.0061 49.8277 33.0061C52.6893 33.0061 55.409 31.9903 57.5607 30.1226L37.9005 10.2549V20.8058ZM59.6359 29.5218L61.733 31.6408V21.0898C61.7221 21.0461 61.7221 20.9915 61.7221 20.9478C61.7221 17.7257 60.4769 14.7002 58.2269 12.4175C55.9769 10.1456 52.9842 8.88956 49.8058 8.88956C46.9442 8.88956 44.2354 9.90534 42.0728 11.7731L50.5595 20.358L59.5813 29.4672C59.6032 29.4891 59.625 29.5 59.6359 29.5218Z"></path>
</svg>
